<svg xmlns="http://www.w3.org/2000/svg" id="Layer_1" data-name="Layer 1" viewBox="0 0 546.67 136"><defs><style>      .cls-1 {        font-family: Cedora-BoldItalic, Cedora;        font-size: 24.66px;        font-style: italic;        font-weight: 700;      }    </style></defs><path d="M275.59,15.67c10.53,1.24,18.99,11.64,12.53,21.77-.59.92-4.32,4.02-3.59,4.72,22.32,3.46,24.94,32.78,4.94,42.22-2.31,1.09-9.13,3.37-11.41,3.37h-39.73V15.67h37.27ZM264.81,83.43h13.24c1.08,0,7.13-2.03,8.46-2.63,18.07-8.18,14.24-33.35-5.45-35.49-2.42-.26-14.8,1.34-11.65-3.78,1.31-2.14,4.09-.56,5.59-.58,10.61-.15,14.63-14.49,4.61-19.45-2.56-1.27-9.84-2.36-12.66-2.19-.65.04-2.15.34-2.15.98v63.14Z"></path><path d="M367.07,34.77c-.06-4.62.07-9.26.03-13.88-.01-1.55-1.45-5.01,1-5.77.77-.24,2.62.13,3.13.71,1.11,1.27-.58,17.6.15,18.33.66.67,5.76-1.66,5.51,2.17-.2,3.15-5.5,1.56-5.5,3.06v48.05c0,1.15-4.46,1.86-4.94-1.27l.63-47.09h-25.26v48.67h-26.49V15.67h26.49v19.1h25.26Z"></path><path d="M185.34,19.37c-1.3-1.3-13.96,1.42-16.19,1.11-3.08-.42-3.12-4.22-.11-4.79,16.41-.38,32.88.44,49.29,0,2.25-.06,11.41-2.66,10.08,2.03-.14.5-1.79,1.64-2.1,1.64h-14.48v68.38h-26.49V19.37Z"></path><rect x="383.7" y="110.25" width="146" height="3.7"></rect><path d="M165.63,111.48v3.08H19.02c.73-.68.46-3.08.62-3.08h146Z"></path><text class="cls-1" transform="translate(177.45 118.73)"><tspan x="0" y="0">Business services</tspan></text></svg>